<?xml version="1.0" encoding="UTF-8" standalone="no" ?>
<!DOCTYPE svg PUBLIC "-//W3C//DTD SVG 1.1//EN" "http://www.w3.org/Graphics/SVG/1.1/DTD/svg11.dtd">
<svg xmlns="http://www.w3.org/2000/svg" xmlns:xlink="http://www.w3.org/1999/xlink" version="1.1" width="1080" height="1080" viewBox="0 0 1080 1080" xml:space="preserve">
<style>
  @media (prefers-color-scheme: dark) {
  .outline { fill: rgb(255,255,255); }
  }
</style>
<desc>Created with Fabric.js 5.2.4</desc>
<defs>
</defs>
<g transform="matrix(1 0 0 1 540 540)" id="c1c2452b-65e9-47c4-aecd-35bf1a201c06"  >
<rect style="stroke: none; stroke-width: 1; stroke-dasharray: none; stroke-linecap: butt; stroke-dashoffset: 0; stroke-linejoin: miter; stroke-miterlimit: 4; fill: rgb(255,255,255); fill-rule: nonzero; opacity: 1; visibility: hidden;" vector-effect="non-scaling-stroke"  x="-540" y="-540" rx="0" ry="0" width="1080" height="1080" />
</g>
<g transform="matrix(1 0 0 1 540 540)" id="83d64ef2-16d8-4f05-bb73-02959a3bfe73"  >
</g>
<g transform="matrix(10.1 0 0 10.1 668.81 767.32)"  >
<g style="" vector-effect="non-scaling-stroke"   >
		<g transform="matrix(1 0 0 1 -15.79 -22.13)"  >
<path class="outline" style="stroke: none; stroke-width: 1; stroke-dasharray: none; stroke-linecap: butt; stroke-dashoffset: 0; stroke-linejoin: miter; stroke-miterlimit: 4; fill: rgb(0,0,0); fill-rule: nonzero; opacity: 1;" vector-effect="non-scaling-stroke"  transform=" translate(-29.18, -44.99)" d="M 57.9 3.5 C 57 1.7 55 0.7000000000000002 53 0.20000000000000018 C 52.4 1.6653345369377348e-16 51.7 1.6653345369377348e-16 50.9 1.6653345369377348e-16 L 43.6 1.6653345369377348e-16 C 39.7 -0.19999999999999984 36.2 2.2 35 6.1 C 31.8 18.7 28.6 31.4 25.3 44 C 23.1 52.6 20.700000000000003 61.5 18.1 71.3 C 17.400000000000002 71.1 16.700000000000003 71.1 15.900000000000002 71.1 L 8.900000000000002 71.1 C 5.200000000000002 70.89999999999999 1.6000000000000023 73.69999999999999 0.40000000000000213 77.69999999999999 C -0.9999999999999978 82.39999999999999 1.300000000000002 87.29999999999998 5.500000000000002 88.6 C 6.300000000000002 88.89999999999999 7.200000000000002 88.89999999999999 8.000000000000002 88.89999999999999 L 15.000000000000002 88.89999999999999 C 16.3 88.89999999999999 17.5 88.69999999999999 18.700000000000003 88.1 C 19.700000000000003 89 21.000000000000004 89.5 22.300000000000004 89.8 C 22.900000000000006 90 23.600000000000005 90 24.200000000000003 90 L 31.500000000000004 90 C 36.6 90 39.6 86.8 40.800000000000004 82.2 C 41.50000000000001 79.3 42.2 76.4 43.00000000000001 73.5 C 47.400000000000006 56.5 51.7 39.2 55.30000000000001 21.9 C 58.90000000000002 4.599999999999994 57.000000000000014 13.399999999999999 57.90000000000001 9.2 C 58.20000000000001 7.699999999999999 58.500000000000014 6.199999999999999 58.30000000000001 4.799999999999999 C 58.30000000000001 4.299999999999999 58.10000000000001 3.899999999999999 57.90000000000001 3.499999999999999 Z" stroke-linecap="round" />
</g>
		<g transform="matrix(1 0 0 1 -11.68 -21.97)"  >
<path style="stroke: none; stroke-width: 1; stroke-dasharray: none; stroke-linecap: butt; stroke-dashoffset: 0; stroke-linejoin: miter; stroke-miterlimit: 4; fill: rgb(71,101,241); fill-rule: nonzero; opacity: 1;" vector-effect="non-scaling-stroke"  transform=" translate(-33.29, -45.15)" d="M 48.6 9.3 C 42.5 34 36.3 58.599999999999994 29.8 83.3 C 29.6 83.89999999999999 29.400000000000002 84.39999999999999 29 84.89999999999999 C 27.9 86.49999999999999 26 87.6 23.8 87.6 L 23.8 87.6 C 23.3 87.6 22.900000000000002 87.6 22.400000000000002 87.39999999999999 C 22.3 87.39999999999999 22.1 87.39999999999999 22.000000000000004 87.39999999999999 C 22.000000000000004 87.39999999999999 22.000000000000004 87.39999999999999 21.900000000000002 87.39999999999999 C 19.6 86.69999999999999 18.000000000000004 84.99999999999999 17.800000000000004 82.89999999999999 C 17.800000000000004 82.3 17.800000000000004 81.6 17.900000000000006 80.89999999999999 C 18.200000000000006 79.8 18.500000000000007 78.69999999999999 18.800000000000004 77.6 C 21.700000000000003 66.69999999999999 24.600000000000005 55.699999999999996 27.400000000000006 44.8 C 30.700000000000006 32.199999999999996 33.900000000000006 19.499999999999996 37.10000000000001 6.899999999999999 C 37.80000000000001 4.299999999999999 40.20000000000001 2.799999999999999 42.70000000000001 2.6999999999999984 C 42.90000000000001 2.6999999999999984 43.20000000000001 2.6999999999999984 43.40000000000001 2.6999999999999984 C 43.70000000000001 2.6999999999999984 44.000000000000014 2.6999999999999984 44.20000000000001 2.7999999999999985 C 45.70000000000001 3.0999999999999983 47.00000000000001 3.9999999999999982 47.80000000000001 5.099999999999998 C 48.70000000000001 6.299999999999998 49.000000000000014 7.799999999999998 48.60000000000001 9.399999999999999 Z" stroke-linecap="round" />
</g>
		<g transform="matrix(0.29 -0.96 0.96 0.29 -37.4 13.14)"  >
<ellipse style="stroke: none; stroke-width: 1; stroke-dasharray: none; stroke-linecap: butt; stroke-dashoffset: 0; stroke-linejoin: miter; stroke-miterlimit: 4; fill: rgb(190,49,79); fill-rule: nonzero; opacity: 1;" vector-effect="non-scaling-stroke"  cx="0" cy="0" rx="6.5" ry="5.5" />
</g>
		<g transform="matrix(1 0 0 1 45.23 67.38)"  >
<line style="stroke: rgb(0,0,0); stroke-width: 0.5; stroke-dasharray: none; stroke-linecap: butt; stroke-dashoffset: 0; stroke-linejoin: miter; stroke-miterlimit: 10; fill: none; fill-rule: nonzero; opacity: 1;" vector-effect="non-scaling-stroke"  x1="0" y1="0" x2="0" y2="0" />
</g>
		<g transform="matrix(1 0 0 1 13.23 -64.82)"  >
<path style="stroke: rgb(0,0,0); stroke-width: 0.5; stroke-dasharray: none; stroke-linecap: butt; stroke-dashoffset: 0; stroke-linejoin: miter; stroke-miterlimit: 10; fill: none; fill-rule: nonzero; opacity: 1;" vector-effect="non-scaling-stroke"  transform=" translate(-58.2, -2.3)" d="M 58.2 2.3" stroke-linecap="round" />
</g>
</g>
</g>
</svg>
