<?xml version="1.0" encoding="UTF-8"?>
<svg id="Layer_7" data-name="Layer 7" xmlns="http://www.w3.org/2000/svg" viewBox="0 0 220.21 245.32">
  <defs>
    <style>
      .cls-1 {
        fill: #000;
      }

      .cls-1, .cls-2, .cls-3, .cls-4 {
        stroke-width: 0px;
      }

      .cls-2 {
        fill: #be314f;
      }

      .cls-3 {
        fill: #4765f1;
      }

      .cls-4 {
        fill: #fff;
      }
    </style>
  </defs>
  <g>
    <g>
      <path class="cls-1" d="M69.55,76.77c-.34,0-.67.01-1,.05-1.42-.58-2.83-.72-4.18-.52-5.97-2.23-11.88,2.92-12.54,8.73-1.54,8.32,5.39,15.53,12.48,20.08,3.69,2.51,7.88,3.68,11.99,3.76,1.07.21,2.15.35,3.22.4,9.51,2.25,19.81-1.97,23.7-9.9,3.97,5.33,10.15,8.83,17.15,9.06,1.3.29,2.63.45,4,.5,1.53.34,3.12.52,4.75.52,12.43,0,22.5-10.32,22.5-23.04s-9.67-22.62-21.75-23.02c-1.3-.29-2.63-.45-4-.5-1.53-.34-3.12-.52-4.75-.52-9.63,0-17.85,6.2-21.06,14.91-2.6-4.51-5.92-8.76-9.1-12.88,1.21.3,2.48.34,3.73.16.91.23,1.84.33,2.77.33,4.32,1.99,10.26,0,12.45-3.9,4.1-7.29-5.22-16.84-10.71-21.8-3.58-3.16-8.16-4.72-12.79-4.93-1.42-.32-2.88-.5-4.33-.54-6.29-1.32-13.16.1-18.07,3.66-.65-1.52-2.2-2.74-4.24-3.14-.83-.16-1.67-.15-2.47,0-.47-.22-.98-.38-1.53-.49-.83-.16-1.67-.15-2.47,0-.47-.22-.98-.38-1.53-.49-3-.58-6.12.9-7.07,3.62-3.17,11.2-6.39,22.41-9.67,33.61-2.7,9.24-5.45,18.49-8.23,27.73-.52-.42-1.13-.74-1.83-.92-.92-.25-1.88-.23-2.78.01-.37-.22-.78-.39-1.22-.51-.92-.25-1.88-.23-2.78.01-.37-.22-.78-.39-1.22-.51-2.91-.77-6.1,1.07-7.14,4.12-1.03,3.05.49,6.15,3.4,6.92.92.25,1.88.23,2.78-.01.37.22.78.39,1.22.51.92.25,1.88.23,2.78-.01.37.22.78.39,1.22.51,1.97.52,4.07-.16,5.54-1.6.81.77,1.93,1.35,3.25,1.6.47.09.94.13,1.4.13.37,0,.74-.03,1.1-.09.46.2.96.36,1.5.46.47.09.94.13,1.4.13.37,0,.74-.03,1.1-.09.46.2.96.36,1.5.46.47.09.94.13,1.4.13,2.77,0,5.29-1.51,5.95-3.75,4.58-15.47,9.06-30.95,13.44-46.42,2.25,6.25,6.57,12.06,10.71,17.49Z"/>
      <path class="cls-1" d="M84.74,112.88c-1.87,0-3.77-.2-5.64-.62-1.03-.06-2.07-.2-3.12-.39-4.84-.14-9.45-1.61-13.36-4.27-5.18-3.33-9.03-7.14-11.37-11.15-1,3.39-1.99,6.77-2.98,10.11-1.03,3.47-4.66,5.9-8.83,5.9-.66,0-1.31-.06-1.95-.18-.45-.08-.9-.2-1.34-.35-.91.07-1.8,0-2.66-.15-.45-.08-.9-.2-1.34-.35-.9.07-1.79,0-2.66-.15-.94-.18-1.84-.48-2.65-.89-1.96,1.08-4.25,1.4-6.37.83-.29-.08-.58-.17-.86-.29-1.06.13-2.13.06-3.14-.22-.29-.08-.58-.17-.86-.28-1.06.13-2.12.06-3.14-.22-2.15-.57-3.92-1.97-4.97-3.93-1.1-2.05-1.28-4.55-.5-6.85,1.53-4.51,6.35-7.22,10.75-6.05.29.08.58.17.86.29,1.06-.13,2.12-.06,3.13.21.29.08.58.17.87.29.76-.09,1.52-.08,2.26.03,2.59-8.65,4.98-16.72,7.28-24.57,3.26-11.14,6.51-22.44,9.66-33.59l.06-.18c1.42-4.06,5.92-6.45,10.47-5.57.46.09.91.21,1.35.36.9-.08,1.79-.03,2.65.13.46.09.91.21,1.35.37.9-.08,1.79-.03,2.65.13,1.68.33,3.19,1.06,4.37,2.1,5.23-2.88,11.64-3.87,17.72-2.67,1.49.06,2.96.24,4.38.54,5.48.3,10.57,2.31,14.38,5.67,10.3,9.31,14.37,17.25,12.17,23.67,4.05-1.33,8.55-1.62,12.88-.72,1.35.06,2.7.23,4,.5,13.69.61,24.37,11.98,24.37,26.01s-11.44,26.04-25.5,26.04c-1.71,0-3.43-.18-5.13-.53-1.35-.06-2.69-.23-4-.5-6.19-.28-11.98-2.81-16.4-7.09-4.32,5.35-11.42,8.55-18.85,8.55ZM61.47,78.77c-1.22,0-2.25.44-3,.89-1.97,1.21-3.41,3.44-3.66,5.7l-.03.21c-1.47,7.94,7.31,14.54,11.16,17.01,3.08,2.09,6.66,3.21,10.42,3.28l.52.05c.95.19,1.89.3,2.8.35l.54.08c8.16,1.94,17.08-1.72,20.31-8.3l2.16-4.42,2.94,3.94c3.57,4.8,8.98,7.66,14.84,7.86h.27s.27.07.27.07c1.12.25,2.29.39,3.46.43h.27s.27.07.27.07c1.36.3,2.74.45,4.11.45,10.75,0,19.5-8.99,19.5-20.04s-8.28-19.67-18.85-20.03h-.28s-.27-.07-.27-.07c-1.12-.25-2.28-.39-3.46-.43h-.27s-.27-.07-.27-.07c-1.36-.3-2.74-.45-4.11-.45-8.06,0-15.39,5.2-18.24,12.95l-2.21,6.01-3.2-5.55c-2.4-4.17-5.51-8.19-8.51-12.08l-5.6-7.25,8.33,2.04c.81.2,1.7.23,2.59.11l.58-.08.57.14c.64.16,1.34.25,2.04.24h.66s.6.28.6.28c2.79,1.29,7.12-.05,8.58-2.64,2.15-3.83-1.43-10.26-10.1-18.1-3.61-3.19-7.93-4.03-10.91-4.16l-.53-.07c-1.21-.27-2.47-.43-3.76-.46l-.53-.06c-5.43-1.14-11.44.07-15.69,3.15l-3.03,2.2-1.48-3.44c-.22-.52-.88-1.15-2.05-1.38-.43-.08-.9-.08-1.39,0l-.92.16-.85-.39c-.27-.12-.56-.22-.85-.27-.43-.08-.9-.08-1.39,0l-.92.16-.85-.39c-.27-.12-.56-.22-.85-.27-1.56-.31-3.18.41-3.64,1.6-3.15,11.12-6.39,22.4-9.65,33.53-2.58,8.81-5.27,17.89-8.23,27.75l-1.28,4.26-3.47-2.79c-.21-.17-.46-.29-.72-.37-.39-.1-.81-.1-1.24.01l-1.2.31-1.07-.62c-.17-.1-.33-.17-.49-.21-.39-.1-.81-.1-1.24.01l-1.2.31-1.07-.62c-.17-.1-.33-.17-.49-.21-1.38-.37-3,.63-3.52,2.18-.25.75-.22,1.49.11,2.09.18.34.54.78,1.22.96.39.11.81.1,1.25-.01l1.2-.31,1.07.62c.17.1.32.16.49.21.4.1.82.1,1.25-.01l1.2-.31,1.07.62c.17.1.32.16.49.21.88.23,1.91-.09,2.68-.84l2.07-2.02,2.1,1.99c.42.4,1.04.69,1.74.82.48.09.93.11,1.51.02l.84-.12.78.34c.28.12.57.21.87.27.46.08.91.11,1.51.02l.84-.12.78.34c.28.12.57.21.87.27.27.05.56.08.85.08,1.6,0,2.84-.83,3.07-1.6,4.47-15.08,8.99-30.69,13.43-46.39l2.55-9,3.16,8.8c2.02,5.62,5.85,10.88,10.27,16.68l3.72,4.87-6.13-.05c-.22,0-.43,0-.64.03l-.76.09-.71-.29c-.85-.35-1.72-.46-2.58-.33l-.77.12-.73-.27c-.65-.24-1.27-.34-1.85-.34ZM59.56,67.71c-.54,1.88-1.07,3.75-1.61,5.62,1.62-.53,3.31-.69,4.97-.47-1.21-1.72-2.34-3.43-3.36-5.16ZM97.58,68.13c.74,1.01,1.47,2.03,2.18,3.06.57-.88,1.18-1.73,1.85-2.53-1.37.03-2.73-.13-4.03-.54Z"/>
    </g>
    <g>
      <path class="cls-1" d="M131.6,111.23h-.03c-1.29-.35-2.61-.52-3.97-.5h-.03c-1.29-.35-2.61-.52-3.97-.5h-.14c-10.08-.93-18.89,16.16-23.17,34.26-5.39-13.23-16.28-32.6-31.58-32.79-1.3-.31-2.64-.49-4.02-.5-2.4-.56-4.92-.68-7.56-.2l-.12.04c-6.29,2.62-6.74,8.49-8.05,16.83-1.09,9.11-1.11,21.01-.39,30.98.35,4.87.85,9.55,1.67,14.25,1.59,7.69,2.5,12.16,8.02,13.02.65.02,1.33,0,2.02-.04.59.24,1.24.43,1.98.54.65.03,1.33,0,2.03-.04.58.24,1.23.43,1.97.54,9.5.36,23.94-7.19,31.54-15.16.88,8.23,3.83,13.76,9.49,13.34.16-.04.31-.1.46-.14,1.04.51,2.21.74,3.54.64.16-.04.31-.1.46-.14,1.04.51,2.21.74,3.54.64,8.47-1.94,11.7-12.71,14.07-19.26.19-.64.38-1.22.57-1.76.14.25.28.51.42.77,3.59,6.27,7.72,15.4,14.89,18.94,1.35.49,2.55.56,3.6.28.13.07.26.15.4.22,1.35.49,2.55.56,3.6.28.13.07.26.15.4.22,19.92,7.27,6.44-75.21-21.64-74.75Z"/>
      <path class="cls-1" d="M66.95,190.12c-.27,0-.54,0-.8-.01l-.34-.03c-.7-.11-1.35-.26-1.97-.47-.6.03-1.16.03-1.69,0l-.34-.03c-.69-.11-1.35-.27-1.97-.47-.6.02-1.16.03-1.68,0l-.34-.03c-7.56-1.18-8.85-7.42-10.49-15.32l-.03-.15c-.77-4.39-1.31-9.01-1.71-14.55-.79-11-.64-22.8.4-31.55v-.11s.28-1.72.28-1.72c1.18-7.69,2.19-14.33,9.59-17.42l.74-.22c2.81-.51,5.66-.45,8.46.16,1.32.04,2.67.21,4.01.5,14.29.39,24.46,14.76,30.53,26.97,4.9-15.48,13.17-29.32,23.98-28.45h.01c1.4-.03,2.88.14,4.34.5,1.33,0,2.67.18,4,.5,9.64.06,18.59,8.31,25.24,23.29,8.33,18.76,11.99,47.01,4.23,55.32-2.34,2.5-5.52,3.22-8.98,2.04-1.28.14-2.62-.03-4-.5-1.34.15-2.76-.05-4.22-.58l-.3-.13c-6.17-3.04-10.18-9.4-13.37-15.1-2.52,6.67-6.43,14.76-14.59,16.63l-.45.07c-1.42.11-2.77-.06-4.03-.5-1.41.1-2.75-.06-4-.5-3.49.27-9.14-.95-11.68-10.44-7.97,6.5-19.69,12.29-28.86,12.29ZM66.55,184.11c8.09.24,21.61-6.41,29.07-14.24l4.47-4.69.69,6.44c.43,4.03,1.77,10.68,5.97,10.68h.02c.06-.02.12-.04.18-.05l1.1-.3,1.02.5c.5.25,1.03.35,1.69.35.06-.02.12-.04.19-.06l1.1-.3,1.02.5c.52.26,1.09.37,1.77.35,6.11-1.58,9.03-9.81,11.17-15.83l.5-1.39c.2-.65.39-1.24.58-1.79l2.21-6.4,3.69,6.73c.49.85,1.03,1.84,1.59,2.86,3.11,5.67,6.63,12.08,11.83,14.74.65.22,1.2.27,1.65.15l1.14-.31,1.04.56c.07.04.14.08.21.12.63.2,1.17.25,1.6.13l1.14-.31,1.04.56c.07.04.14.08.21.12,1.49.49,2.1,0,2.56-.49,4.83-5.18,3.12-29.77-5.33-48.79-3.3-7.44-10.31-19.85-20.05-19.73h-.48l-.38-.1c-1.05-.28-2.12-.42-3.14-.4h-.42s-.44-.1-.44-.1c-1.05-.28-2.12-.41-3.14-.4h-.47c-.16-.03-.33-.04-.49-.04-6.93,0-15.05,13.26-19.49,31.99l-2.16,9.12-3.54-8.69c-3.76-9.24-14.1-30.74-28.84-30.92h-.33s-.32-.08-.32-.08c-1.14-.27-2.27-.41-3.36-.42h-.33s-.32-.08-.32-.08c-2.04-.48-4.03-.55-6.07-.22-3.91,1.75-4.59,5.21-5.74,12.68l-.26,1.68c-.98,8.26-1.12,19.89-.37,30.35.38,5.33.9,9.77,1.63,13.95,1.65,7.98,2.37,10.01,5.36,10.54.46.01.96,0,1.53-.04l.7-.05.65.27c.35.14.72.25,1.13.32.46.01.96,0,1.53-.04l.7-.05.65.27c.34.14.71.25,1.12.32Z"/>
    </g>
  </g>
  <path class="cls-4" d="M77.47,51.73c-.45.81-.15,1.96.11,2.86.98,2.88,2.83,5.39,4.66,7.87,6.28,8.17,13.39,16.79,14.48,26.97,1.82,16.03-18.71,25-32.41,15.68-7.09-4.56-14.03-11.76-12.48-20.08.75-6.6,8.27-12.35,14.97-7.39,2.88,2.33,3.7,5.81,5.81,9.28.74,1.61,4.29,6.13,4.08,1.71-.53-3.33-3.43-6.94-5.61-9.84-6.82-8.97-15.01-18.98-13.67-30.37,1.45-14.41,22.58-20.14,33.8-10.23,5.49,4.96,14.81,14.51,10.71,21.8-2.48,4.41-9.76,6.39-14.06,2.9-2.3-.98-7.48-13.17-10.33-11.23l-.05.07Z"/>
  <path class="cls-4" d="M121.12,62.37c-12.43,0-22.5,10.32-22.5,23.04s10.07,23.04,22.5,23.04,22.5-10.32,22.5-23.04-10.07-23.04-22.5-23.04ZM125.12,92.06c-4.64-3.07-7.31-8.18-7-13.29,4.6,3.05,7.34,8.21,7,13.29Z"/>
  <path class="cls-4" d="M93.41,146.36c-5.24-14-17.9-38.7-36.28-35.37l-.12.04c-6.29,2.62-6.74,8.49-8.05,16.83-1.09,9.11-1.11,21.01-.39,30.98.35,4.87.85,9.55,1.67,14.25,1.59,7.69,2.5,12.16,8.02,13.02,11.79.45,31.19-11.29,35.67-20.88,3.15-6.09,1.71-12.71-.52-18.86ZM67.99,150.54c-1.57-4-2.79-8.03-2.87-12.34,3.03,3.38,4.97,7.18,6.63,11.15,1.57,4,2.8,8.02,2.87,12.34-3.03-3.37-4.98-7.17-6.63-11.15Z"/>
  <path class="cls-4" d="M123.6,110.23h-.14c-21.31-1.97-36.95,76.61-16.17,75.05,8.47-1.94,11.7-12.71,14.07-19.26,2.79-9.16,4.63-8.07,8.99.02,3.59,6.27,7.72,15.4,14.89,18.94,19.92,7.27,6.44-75.21-21.64-74.75ZM127.62,142.2c-4.16-2.37-6.32-6.76-5.5-11.08,4.14,2.38,6.34,6.76,5.5,11.08Z"/>
  <path class="cls-3" d="M31.43,108.45c-.46,0-.93-.04-1.4-.13-3.29-.61-5.3-3.23-4.51-5.84,3.23-10.67,6.4-21.34,9.53-32,3.28-11.2,6.5-22.41,9.67-33.61.95-2.72,4.07-4.2,7.06-3.62,3.16.61,5.15,3.23,4.43,5.84-6.05,21.87-12.32,43.74-18.81,65.61-.66,2.24-3.18,3.75-5.96,3.75Z"/>
  <path class="cls-2" d="M20.39,103.21c-1.03,3.05-4.23,4.89-7.14,4.12s-4.43-3.87-3.4-6.92,4.23-4.89,7.14-4.12,4.43,3.87,3.4,6.92Z"/>
</svg>